<svg xmlns="http://www.w3.org/2000/svg" width="1280" height="1280" xmlns:v="https://vecta.io/nano"><style><![CDATA[.B{fill:#f3f0eb}.C{fill:#393837}]]></style><path d="M261.75 441.875l4-.01c20.02.02 20.02.02 24.25 2.13 2.06.35 4.12.65 6.19.94 4.76.71 9.21 1.62 13.81 3.06l5.44 1.44a112.23 112.23 0 0 1 11.75 3.89c2.02.78 2.02.78 5 1.55 5.73 1.69 11.25 3.93 16.81 6.12v2l6 1 1 3c1.32.39 2.66.7 4 1l7.25 3.57 1.97 1 4.78 2.43v2l1.7.82c2.46 1.27 4.74 2.67 7.05 4.18l2.42 1.57 1.83 1.43v2l3 1 2 3c2.55 1.21 2.55 1.21 5 2v2l2.19.69c3.4 1.59 5.26 3.58 7.81 6.31l2.44 2.38c8.56 8.77 8.56 8.77 8.56 11.62l3 1 3 6 2 1v2h2l.25 2.88c.4 3.23.4 3.23 2.81 4.5l1.94.62v2l3 1c1.75 3.5 3 6.07 3 10l2 1c2.69 2.44 4.72 4.58 6 8v4l2 1v5h3v4l2 1c2.15 3.72 3 5.65 3 10l2-1c1.6 3.51 2.22 6.15 2 10h2l-.63 2.63c-.41 3.74.23 5.92 1.63 9.37v-5c2.28 2.28 2.45 3.3 3.06 6.38.59 2.9 1.21 5.76 1.94 8.62l1.13 4.94.57 2.53c.33 2.76-.02 4.85-.7 7.53l3 1 .05 25.07.03 11.64.01 11.24.02 4.28v6.01l.01 3.46c-.13 3.49-.59 6.85-1.12 10.3-.06 1.82-.09 3.63-.06 5.44l.02 2.62.04 1.94h-2l.07 2.05.06 2.71.07 2.67c-.21 2.72-.93 4.2-2.2 6.57l.06 2.76c-.1 5.39-2.09 9.8-5.06 14.24l-3 1c-.65 4.73-1.12 9.22-1 14h-2l-1 7c-3 1-3 1-6 0l2 3-1 3-2-1v6l-4-1 2 3c-.37 3.19-.37 3.19-1 6h-2l-1 3-2-2 .63 3.38.37 3.62c-2 2-2 2-4.63 2.13l-2.37-.13 1.37 2.44c.72 4.1.35 4.7-1.81 8.06-2.9 3.93-6.17 8.2-10.56 10.5-2.21-.35-2.21-.35-4-1l1 5h-2l1 2c-1.89 4.42-5.1 6.95-8.67 9.97-5.55 4.85-11.05 10.02-15.33 16.03l-4-1v2l-5-1 .56 1.88c.44 2.12.44 2.12-.56 4.12h-2v2c-3.29.8-4.71 1.1-8 0l1 3-4-1 1 4-6-1 1 3-4-1 1 4h-6l1 3-5 2v2c-5.14 2.67-10.3 4.99-15.7 7.08-2.17.87-4.22 1.86-6.3 2.92-4.41 2.1-4.41 2.1-7.31 1.63l-1.69-.63v2c-2.68 1.68-5.03 2.22-8.13 2.57-3.66.19-3.66.19-5.87 1.43l-2.87-.12c-3.12-.19-3.12-.19-4.94 1.62-3.04 2.09-5.47 1.65-9.07 1.42-2.43-.09-2.43-.09-5.12 2.08-2.49.25-2.49.25-5.48.23h-3.4l-3.66-.03c-1.86 0-1.86 0-3.76-.01l-9.87-.05-10.07-.04-19.76-.1v-2l-1.62.56c-3.04.57-5.46.15-8.51-.37l-3.19-.52c-2.68-.67-2.68-.67-4.68-2.67a204.18 204.18 0 0 0-7 0l-2-1-3.94-1c-2.41-.57-4.7-1.21-7.06-2v-2l-3.25-.37c-4.36-.73-6.65-1.52-9.75-4.63l-3-1c-3-1-3-1-5-3-2.08-1.17-2.08-1.17-5-1.43-3-.57-3-.57-5-2.57-1.65-.7-3.32-1.36-5-2l-2-1v-2l-3 1v-2h-3l-.69-1.93c-1.16-2.34-1.16-2.34-3.94-2.81l-2.37-.26v-2h-2l-1-2-6-3c-2.37-1.56-2.37-1.56-4-3v-2l-1.87-.31c-2.13-.69-2.13-.69-4.13-3.69l-5-3c-6.06-4.71-10.48-9.18-13.86-16.08-1.71-2.87-4.37-4.11-7.14-5.92-2.22-2.87-4.11-5.9-6-9l-2-3-1-3h-2c-3-4.38-3-4.38-3-7h-2l-2-3.81-1.13-2.14c-.87-2.05-.87-2.05-.87-5.05l-2-1c-3.35-3.55-4.55-6.13-5-11h-2c-2.79-5.18-4.77-10.1-6.29-15.8-.68-2.45-.68-2.45-2.71-5.2-.72-2.27-1.38-4.57-2-6.87-1.29-4.8-1.29-4.8-2.96-9.47-1.56-3.98-2.56-8.08-3.6-12.22l-.68-2.7c-1.38-5.65-2.35-11.1-2.52-16.93-.18-3.01-.18-3.01-1.24-6.65-1.38-6.12-1.29-12.18-1.27-18.43v-3.78l.02-9.87-.02-8.08v-9.65l-.01-3.66.02-3.37.01-2.97c.25-2.35.25-2.35 2.25-4.35.39-2.49.39-2.49.5-5.31.22-4.02.95-6.98 2.5-10.69v-2.68c0-2.32 0-2.32 2-4.32.46-2.2.46-2.2.63-4.62l.22-2.48.15-1.9h2l1-8h2l-.19-2.56c.23-4.17 1.39-6.69 3.19-10.44h2l.31-3.06c.73-4.15 1.91-7.15 3.69-10.94h2l-1-3 3-1v-3l2-2 1-3h2l.37-2.18c.62-2.77 1.51-5.21 2.63-7.82h2v-3l2-1 .37-1.87c.83-2.81 2.3-3.45 4.63-5.13l1-3 2-2 3.31-3.81c2.06-2.37 4.1-4.58 6.38-6.75 2.79-2.94 4.42-5.86 6.31-9.44h2l1-3h2v-2c1.43-1.5 1.43-1.5 3.31-3.12l1.87-1.63c1.82-1.25 1.82-1.25 4.82-1.25v-2c5.48-5 5.48-5 8-5v-2c3.31-2.9 6.92-5.37 10.55-7.85 1.6-1.1 1.6-1.1 2.45-3.15l1.81-.37c2.36-.48 2.36-.48 4.13-2.56 2.94-2.95 5.76-3.83 9.81-4.57l2.25-.5 1-2c3.41-2.39 4.71-3 9-3l1-2c2.14-1.25 2.14-1.25 4.81-2.56l2.65-1.31a32.89 32.89 0 0 1 6.54-2.13c5.04-1.36 9.85-2.85 14.56-5.12 3.92-1.84 7.38-2.41 11.69-2.6l1.75-.28 1-2c2.69-.37 2.69-.37 6-.56 3.82.11 3.82.11 7-1.44 10.21-1.12 20.5-1.15 30.75-1.12zM437 543.995l1 2zm8 12l1 2zm6 14l1 2zm4 8l1 2zm3 4l-1 5h2v-5h-1zm1 5l1 2zm0 4l1 2zm5 11l1 3zm4 18l-1 2h2l-1-2zm3 8l1 4zm-2 75l1 3zm-1 3l1 2zm0 7l1 2zm-2 4l1 4zm-2 10l1 2 1-2h-2zm0 4l1 3zm-3 4v5h1v-5h-1zm-5 15v6h1v-6h-1zm-3 7l1 3zm2 0l1 2zm-12 21l1 3zm2 0l1 2zm-20 28l1 3 1-3h-2zm-69 60l1 2 3-2h-4zm-4 2l1 2 3-2h-4zm-5 3l1 2zm-6 2v1h5v-1h-5zm-7 3l1 2zm2 0l4 1zm-134 8v1h6v-1h-6zm109 0l1 2zm3 0v1h5v-1h-5zm-14 2l4 1zm-74 3v1h5v-1h-5z"/><path d="M512.086 544.637h3.57l3.72.05 3.69-.01c5.83.04 10.42.36 15.93 2.32l5.64.65c4.87.72 9.61 2.09 14.36 3.35v2l1.88.75c4.04 2.38 4.85 7.12 6.34 11.35.82 2.17.82 2.17 2.78 4.9l3 7 1 2 1 3 2 2c1.22 3.65 2.01 7.06 2.5 10.88l.5 3.12 2 1c.86 1.96.86 1.96 1.63 4.38l.79 2.4c.58 2.22.58 2.22.58 5.22l2 1c2.38 4.75 3.29 8.72 4 14 1.71 2.77 1.71 2.77 3 4a133.35 133.35 0 0 1 0 6h2l-1 4h2l.15 1.9.23 2.48.21 2.46c.24 2.37.24 2.37 2.41 4.16a78.95 78.95 0 0 1 2.19 4.88l1.11 2.62c.75 2.67.64 3.93-.3 6.5l2 1 4 2-.07-2.23-.05-2.95-.07-2.92c.2-3.06 1.01-5.1 2.19-7.9.45-2.43.45-2.43.63-4.81l.23-2.39.14-1.8h2l-.03-2.99-.03-3.88-.03-3.87c.09-3.26.09-3.26 1.09-5.26h2l-.1-1.68c-.21-5.87.71-9.96 3.1-15.32l1-1 .69-5.95c.39-2.55 1.28-4.68 2.31-7.05 1.66-4.96 2.34-9.58 2.66-14.76.34-2.24.34-2.24 2.34-5.24l-.06-3.12c.12-7.6 2.64-13.03 7.66-18.66 1.4-1.22 1.4-1.22 3.4-1.22l1-3h4v-2c3.18-1.59 6.62-1.18 10.12-1.2l2.44-.02 5.13-.02 7.82-.07 4.98-.01 2.36-.04c4.53.02 7.59.46 11.15 3.36v2l2 1-1 2 2 1c1.09 3.27 1.24 3.91 0 7-4.29 5.77-4.29 5.77-8 7-1.72.07-3.45.09-5.18.07l-2.73-.03-2.09-.04c-1.48 2.96-1.35 5.84-1.56 9.13l-.25 3.88-.19 2.99 1-1c3.41 3.41 3.13 6.98 3.13 11.62l.01 3.48-.01 3.79.01 4.01v10.88 11.4l-.01 19.16.01 22.11v19.01 11.34 10.68 5.75c-.02 6.35-.29 12.49-1.14 18.77l2 1c1.27 4.48 1.27 4.48 0 7l-2 1 1 24 6 1c5.13 2.46 10.74 5.37 13.38 10.63.62 3.37.62 3.37-.56 6.19-1.82 2.18-1.82 2.18-3.82 4.18-2.84.12-5.59.14-8.43.07-6.13-.09-12.09.06-18.19.71-7.19.68-14.23.06-21.38-.78v-2l-4 1v-2l-3-1a154.53 154.53 0 0 1-.68-4.31l-.39-2.43c.07-2.26.07-2.26 1.39-4.01 2.15-1.59 4.05-1.89 6.68-2.25v-2l4-2c.13-7.89-.06-15.74-.43-23.62l-.12-2.66-.13-2.51-.11-2.24c-.16-2.18-.16-2.18-1.21-4.97-.09-1.7-.13-3.41-.14-5.12l-.02-3.17v-3.42l-.01-3.51-.01-7.37-.04-11.27-.01-7.16-.02-3.41.01-3.18v-2.79c.27-2.85 1.13-4.98 2.24-7.6.26-2.86.26-2.86.16-5.9l-.03-3.43-.06-3.6c-.21-22.89-.21-22.89 1.45-30.4.49-2.71.58-5.15.55-7.9l-.03-2.93-.04-3.02-.06-5.98-.03-2.67c.09-2.17.09-2.17 1.09-4.17h-2l-.43 2.88c-.57 3.12-.57 3.12-1.57 5.12h-2l.69 3c.58 3.92-.39 6.55-1.92 10.14-.92 2.24-1.39 4.47-1.77 6.86h-2l.07 1.87.06 2.45.07 2.42c-.2 2.26-.2 2.26-2.2 5.26a204.18 204.18 0 0 0 0 7l-1 2h-2l-1 5h-3l.44 1.73c1.18 4.9 1.78 9.24 1.56 14.27h-1l-.33 2.78-.48 3.6-.46 3.58c-.73 3.04-.73 3.04-3.73 5.04l.29 2.02c1.12 8.92 1.12 8.92-1.29 12.98l-2 2c-.24 1.98-.24 1.98-.12 4.13l.12 3.87-2 1 .29 2.82c1.32 14.64 1.32 14.64-3.35 21l-1.94 2.18-1 2c-2.67 1.15-3.87 1.04-6.68.19-2.32-1.19-2.32-1.19-3.32-3.19l-2.81-.81c-3.89-1.45-4.93-2.73-7.19-6.19-.65-2.58-1.13-4.94-1.5-7.56-1-6.18-2.49-11.86-4.59-17.78-1.05-3.08-1.76-6.14-2.41-9.32-.8-3.77-1.77-7.49-2.71-11.22l-1.5-6.2c-1.35-5.71-3.03-10.99-5.3-16.39-2.05-5.25-3.99-10.87-3.99-16.53l-2-1c-.72-1.98-1.39-3.98-2-6-1.22 1-1.22 1-1.08 3l.06 2.59.03 2.82.12 5.91.03 2.83.06 2.6c-.22 2.25-.22 2.25-2.22 5.25-.16 2.78-.16 2.78 0 5.82.09 4.5-.14 8-2 12.18h-1l.01 3.1.05 28.87.02 14.85.02 14.31.01 5.48.01 7.64.01 2.3c-.01 5.23-.01 5.23-1.13 7.45h5v2l1.94.94c2.06 1.06 2.06 1.06 3.06 2.06-.17 2.69-.61 5.33-1 8l-6-1v3h2c-1.47 2.96-2.99 3.62-6 5-3.06.36-6.08.24-9.16.11l-2.66-.07-5.53-.18-8.5-.27-5.38-.16-2.57-.08c-5.96-.23-5.96-.23-8.2-1.35v-2l-3-1c-1.58-3.28-2.84-6.54-4-10l5-5 1.44-1.81c1.56-1.19 1.56-1.19 7.56-1.19v-197h-7c-3.18-.93-3.18-.93-6-2l-2.18-.5c-1.82-.5-1.82-.5-4.82-2.5v-2l-3-1c-1.96-4.76-2.63-10.09-1-15 3.22-3.15 5.68-3.37 10.09-3.36zm47.91 9.36l1 2zm1 3l1 2zm128 3v3l2-1v-2h-2zm-125 1l1 2zm-55 3l1 2zm176 1l-4 2h5l-1-2zm-14 3l1 3zm-144 4v195h1v-195h-1zm43 3l1 2zm6 13l1 3zm1 4l1 2zm1 3l1 2zm1 3l1 2zm95 2v103h1v-103h-1zm-93 2l1 2zm1 2l1 3zm1 4l1 2zm62 0l1 3zm-2 1l1 3zm0 4l1 2zm-56 5l1 2zm56 1l1 2zm-2 1l1 2zm-54 2l1 2zm53 0l1 2zm1 2l1 3zm-1 3l1 2zm-2 3l1 2 1-2h-2zm-46 3l1 3zm46 0l1 2zm-43 8l-1 2h2l-1-2zm42 0l1 3zm-2 1l1 3zm-39 1l1 2zm0 3l1 3zm37 8l1 2zm-33 2l1 2zm0 4l1 3zm-37 5l1 2zm1 2l1 2zm0 7l1 2zm63 2l1 2zm1 2l1 2zm-67 2v6h1v-6h-1zm2 1l1 4zm62 5l1 3zm-2 13l1 2zm-1 2l1 2zm-2 10l1 3zm-1 3l1 2zm55 7v7h1v-7h-1zm-55 9l1 3zm-2 3l1 4zm-1 6l1 2zm57 3l1 2zm1 20v7h1v-7h-1zm-105 17l1 4zm-10 7v1h5v-1h-5zm132 0l1 2zm-133 2v1h5v-1h-5z" fill="#e9e6e1"/><path d="M261.75 441.875l4-.01c20.02.02 20.02.02 24.25 2.13 2.06.35 4.12.65 6.19.94 4.76.71 9.21 1.62 13.81 3.06l5.44 1.44a112.23 112.23 0 0 1 11.75 3.89c2.02.78 2.02.78 5 1.55 5.73 1.69 11.25 3.93 16.81 6.12v2l6 1 1 3c1.32.39 2.66.7 4 1l7.25 3.57 1.97 1 4.78 2.43v2l1.7.82c2.46 1.27 4.74 2.67 7.05 4.18l2.42 1.57 1.83 1.43v2l3 1 2 3c2.55 1.21 2.55 1.21 5 2v2l2.19.69c3.4 1.59 5.26 3.58 7.81 6.31l2.44 2.38c8.56 8.77 8.56 8.77 8.56 11.62l3 1 3 6 2 1v2h2l.25 2.88c.4 3.23.4 3.23 2.81 4.5l1.94.62v2l3 1c1.75 3.5 3 6.07 3 10l2 1c2.69 2.44 4.72 4.58 6 8v4l2 1v5h3v4l2 1c2.15 3.72 3 5.65 3 10l2-1c1.6 3.51 2.22 6.15 2 10h2l-.63 2.63c-.41 3.74.23 5.92 1.63 9.37v-5c2.28 2.28 2.45 3.3 3.06 6.38.59 2.9 1.21 5.76 1.94 8.62l1.13 4.94.57 2.53c.33 2.76-.02 4.85-.7 7.53l3 1 .05 25.07.03 11.64.01 11.24.02 4.28v6.01l.01 3.46c-.13 3.49-.59 6.85-1.12 10.3-.06 1.82-.09 3.63-.06 5.44l.02 2.62.04 1.94h-2l.07 2.05.06 2.71.07 2.67c-.21 2.72-.93 4.2-2.2 6.57l.06 2.76c-.1 5.39-2.09 9.8-5.06 14.24l-3 1c-.65 4.73-1.12 9.22-1 14h-2l-1 7c-3 1-3 1-6 0l2 3-1 3-2-1v6l-4-1 2 3c-.37 3.19-.37 3.19-1 6h-2l-1 3-2-2 .63 3.38.37 3.62c-2 2-2 2-4.63 2.13l-2.37-.13 1.37 2.44c.72 4.1.35 4.7-1.81 8.06-2.9 3.93-6.17 8.2-10.56 10.5-2.21-.35-2.21-.35-4-1l1 5h-2l1 2c-1.89 4.42-5.1 6.95-8.67 9.97-5.55 4.85-11.05 10.02-15.33 16.03l-4-1v2l-5-1 .56 1.88c.44 2.12.44 2.12-.56 4.12h-2v2c-3.29.8-4.71 1.1-8 0l1 3-4-1 1 4-6-1 1 3-4-1 1 4h-6l1 3-5 2v2c-5.14 2.67-10.3 4.99-15.7 7.08-2.17.87-4.22 1.86-6.3 2.92-4.41 2.1-4.41 2.1-7.31 1.63l-1.69-.63v2c-2.68 1.68-5.03 2.22-8.13 2.57-3.66.19-3.66.19-5.87 1.43l-2.87-.12c-3.12-.19-3.12-.19-4.94 1.62-3.04 2.09-5.47 1.65-9.07 1.42-2.43-.09-2.43-.09-5.12 2.08-2.49.25-2.49.25-5.48.23h-3.4l-3.66-.03c-1.86 0-1.86 0-3.76-.01l-9.87-.05-10.07-.04-19.76-.1v-2l-1.62.56c-3.04.57-5.46.15-8.51-.37l-3.19-.52c-2.68-.67-2.68-.67-4.68-2.67a204.18 204.18 0 0 0-7 0l-2-1-3.94-1c-2.41-.57-4.7-1.21-7.06-2v-2l-3.25-.37c-4.36-.73-6.65-1.52-9.75-4.63l-3-1c-3-1-3-1-5-3-2.08-1.17-2.08-1.17-5-1.43-3-.57-3-.57-5-2.57-1.65-.7-3.32-1.36-5-2l-2-1v-2l-3 1v-2h-3l-.69-1.93c-1.16-2.34-1.16-2.34-3.94-2.81l-2.37-.26v-2h-2l-1-2-6-3c-2.37-1.56-2.37-1.56-4-3v-2l-1.87-.31c-2.13-.69-2.13-.69-4.13-3.69l-5-3c-6.06-4.71-10.48-9.18-13.86-16.08-1.71-2.87-4.37-4.11-7.14-5.92-2.22-2.87-4.11-5.9-6-9l-2-3-1-3h-2c-3-4.38-3-4.38-3-7h-2l-2-3.81-1.13-2.14c-.87-2.05-.87-2.05-.87-5.05l-2-1c-3.35-3.55-4.55-6.13-5-11h-2c-2.79-5.18-4.77-10.1-6.29-15.8-.68-2.45-.68-2.45-2.71-5.2-.72-2.27-1.38-4.57-2-6.87-1.29-4.8-1.29-4.8-2.96-9.47-1.56-3.98-2.56-8.08-3.6-12.22l-.68-2.7c-1.38-5.65-2.35-11.1-2.52-16.93-.18-3.01-.18-3.01-1.24-6.65-1.38-6.12-1.29-12.18-1.27-18.43v-3.78l.02-9.87-.02-8.08v-9.65l-.01-3.66.02-3.37.01-2.97c.25-2.35.25-2.35 2.25-4.35.39-2.49.39-2.49.5-5.31.22-4.02.95-6.98 2.5-10.69v-2.68c0-2.32 0-2.32 2-4.32.46-2.2.46-2.2.63-4.62l.22-2.48.15-1.9h2l1-8h2l-.19-2.56c.23-4.17 1.39-6.69 3.19-10.44h2l.31-3.06c.73-4.15 1.91-7.15 3.69-10.94h2l-1-3 3-1v-3l2-2 1-3h2l.37-2.18c.62-2.77 1.51-5.21 2.63-7.82h2v-3l2-1 .37-1.87c.83-2.81 2.3-3.45 4.63-5.13l1-3 2-2 3.31-3.81c2.06-2.37 4.1-4.58 6.38-6.75 2.79-2.94 4.42-5.86 6.31-9.44h2l1-3h2v-2c1.43-1.5 1.43-1.5 3.31-3.12l1.87-1.63c1.82-1.25 1.82-1.25 4.82-1.25v-2c5.48-5 5.48-5 8-5v-2c3.31-2.9 6.92-5.37 10.55-7.85 1.6-1.1 1.6-1.1 2.45-3.15l1.81-.37c2.36-.48 2.36-.48 4.13-2.56 2.94-2.95 5.76-3.83 9.81-4.57l2.25-.5 1-2c3.41-2.39 4.71-3 9-3l1-2c2.14-1.25 2.14-1.25 4.81-2.56l2.65-1.31a32.89 32.89 0 0 1 6.54-2.13c5.04-1.36 9.85-2.85 14.56-5.12 3.92-1.84 7.38-2.41 11.69-2.6l1.75-.28 1-2c2.69-.37 2.69-.37 6-.56 3.82.11 3.82.11 7-1.44 10.21-1.12 20.5-1.15 30.75-1.12zM205 474.995l-2.27.62c-9.99 2.83-19.3 6.87-28.67 11.32l-3.12 1.49c-31.61 15.44-58.24 40.32-77.52 69.43l-3.49 5.15c-11.94 17.74-20.07 39.26-24.93 59.99l-.84 3.42c-11.54 49.76-1.14 104.34 25.7 147.58 18.55 28.54 42.69 51.04 72.14 68l1.87 1.09c15.2 8.68 31.16 14.81 48.07 19.29l2.72.72c15.18 3.83 30.01 4.34 45.59 4.34l3.23.01c16.4-.02 31.64-1.05 47.52-5.45l4.66-1.16c48.21-12.56 92.25-46.72 117.45-89.49l1.89-3.35 1.08-1.87c8.68-15.2 14.81-31.15 19.29-48.06l.73-2.72c3.68-14.63 4.25-28.76 4.22-43.77l.04-9.9c.05-17.04-1.72-32.65-6.73-48.99l-.94-3.1c-4.02-13.19-9.25-25.41-15.69-37.59l-1.61-3.05c-13.04-23.39-31.43-44.4-52.39-60.95l-2.4-1.96c-21.91-17.17-47.87-27.09-74.6-34.04l-3.65-.96c-32.22-8-65.67-4.69-97.35 3.96zm232 69l1 2zm8 12l1 2zm6 14l1 2zm4 8l1 2zm3 4l-1 5h2v-5h-1zm1 5l1 2zm0 4l1 2zm5 11l1 3zm4 18l-1 2h2l-1-2zm3 8l1 4zm-2 75l1 3zm-1 3l1 2zm0 7l1 2zm-2 4l1 4zm-2 10l1 2 1-2h-2zm0 4l1 3zm-3 4v5h1v-5h-1zm-5 15v6h1v-6h-1zm-3 7l1 3zm2 0l1 2zm-12 21l1 3zm2 0l1 2zm-20 28l1 3 1-3h-2zm-69 60l1 2 3-2h-4zm-4 2l1 2 3-2h-4zm-5 3l1 2zm-6 2v1h5v-1h-5zm-7 3l1 2zm2 0l4 1zm-134 8v1h6v-1h-6zm109 0l1 2zm3 0v1h5v-1h-5zm-14 2l4 1zm-74 3v1h5v-1h-5z" fill="#e5e2dd"/><path d="M946 554l3 1.19 2 .81v2l3.19.62c4.49 1.27 6.24 3.56 8.81 7.38v3l2 1 1 4 2 1v5l2 1-1 13 3 1 .12 5.81.08 3.27C972 607 972 607 970 610h-1l1 8h-2l-.31 2.31c-.75 2.91-1.26 3.98-3.69 5.69h-4l3 3c-1.42 3.33-3.13 5.28-5.88 7.62l-2.05 1.79c-1.96 1.5-3.83 2.58-6.07 3.59l1.31 5.88.74 3.3c.73 3.11.73 3.11 3.95 4.82v3h2l.38 2.44.62 2.56 2 1c3.11 7 4.51 13.39 4 21l2-1-.06 3.69c.01 4.98.63 8.91 3.06 13.31 1.38 2.76 1.08 4.95 1.03 8.03l-.04 3.65-.12 7.64-.03 3.65-.05 3.36c-.07 2.82-.07 2.82 2.21 4.67.92 4.03 1.08 7.8.96 11.91l-.07 3.31-.19 6.83-.06 3.3-.08 3c.57 3.41 1.79 4.51 4.44 6.65l2.73 1.34c2.27 1.66 2.27 1.66 2.79 4.73l-.14 3.49-.11 3.51C982 784 982 784 981 786h-2l-1 2c-5.92 3.35-11.24 3.18-17.88 3.19l-3.01.03-2.91.01-2.66.01c-4.42-.42-7.68-1.83-10.54-5.24-2-3-2-3-2-7h-2l.88-6.31.49-3.55C939 766 939 766 941 763c.29-2.5.29-2.5.23-5.29l-.01-3.1-.03-3.23v-3.26c.43-4.91.43-4.91-1.19-9.12-.18-2.72-.31-5.42-.39-8.14l-.21-5.13-.3-8.07c-.34-10.13-1.01-19.25-4.27-28.92C934 686 934 686 934 682h-2l-1-5-3-1-3-6c-2.44-2.69-2.44-2.69-5-5l-1.5-1.69c-2.1-1.84-3.79-2.62-6.5-3.31-2.02.61-4.02 1.27-6 2l.02 3.46c.08 21.2.14 42.36-1.02 63.54h2c1.42 2.84 1.31 5.42 1.5 8.58l.12 1.98.38 6.25.38 6.23.34 5.67c.49 7.15.49 7.15 4.09 12.97l4.38 3.5c2.02 2.03 2.49 3.01 2.81 5.82-.18 7.18-.18 7.18-3 10-2.61.32-5.13.52-7.75.62l-2.41.12c-16.64.7-33.22.27-49.84-.74l-1-3-1.88-.88c-2.87-1.52-3.74-3.22-5.12-6.12 0-4 0-4 1.19-5.62 2.14-1.63 4.29-2.45 6.81-3.38l1-1a104.18 104.18 0 0 1 5 0l.05-71.71.03-33.3.01-29.02.02-15.37v-14.46l.01-5.31v-7.24l.01-2.13c-.01-3.61-.28-6.95-1.13-10.46l-2.55-.3-3.33-.45-3.3-.42c-2.82-.83-2.82-.83-4.2-2.91L849 575h-2c-1.5-3.37-2-5.2-2-9h2l-.31-2.69c.31-3.31.31-3.31 2.56-6.06 7.11-5.82 14.33-5.37 23.18-5.09 2.74.11 2.74.11 4.57-2.16 2.16-.2 2.16-.2 4.62-.12l2.48.05 1.9.07v-2c21.07-1.16 40.04-2.05 60 6zm15 12l1 2zm-46.5 6.38l-2.67.09-2.55.12-2.34.09c-2.17.16-2.17.16-3.94 2.32-.37 2.04-.37 2.04-.41 4.42l-.12 2.77-.09 3-.12 3.08-.45 22.11-.04 2.82c0 5.9.76 11.08 2.23 16.8l2.03.03 2.35.03c3.44.09 3.44.09 6.62-1.06v-2h7l1-2 3-1 .38-3.94c.21-2.21.21-2.21.62-4.06l2-1c.39-2.22.39-2.22.5-4.81.28-4.79.28-4.79 1.52-7.08 1.72-3.69 1.03-7.49.79-11.49l-.09-2.53c-.28-5.07-1.06-8.65-3.72-13.09l-2-4c-3.84 0-7.67.21-11.5.38zM965 575l1 2zm1 2l1 2zm-66 26v6h1v-6h-1zm67 3l1 2zm0 9l1 3zm-2 1l1 3zm1 3l1 2zm-4 3l1 2zm-15 18l1 2 1-2h-2zm0 4l1 3zm1 5l1 2zm-44 9l1 2zm54 9l1 2zm-55 4l1 2zm57 0l-1 3h2l-1-3zm1 3l1 2zm-58 28l1 2zm64 7l1 2zm4 41v9h1v-9h-1zm-65 3l1 2zm1 2v6h1v-6h-1zm70 28v3l2-1v-2h-2zm-6 3v1h5v-1h-5z" fill="#e9e7e2"/><path d="M761 545c3.91.38 7.28.76 11 2 2.02-.03 4.04-.1 6.06-.19 6.55-.03 11.17 1.18 16.94 4.19l2.52 1.25c6.77 3.67 11.89 8.58 16.48 14.75v2l1.69.69c2.97 1.69 5.03 3.78 7.31 6.31v2l3 1c1.19 3.06 1.19 3.06 2 6h2l4 8 1.12 2.03c1.32 2.97 1 5.77.88 8.97l2-1-.12 2.88c-.23 3.22-.23 3.22 2.12 5.12 2.19 5.42 2.19 5.42 1 9-.07 2.06-.08 4.13-.06 6.19l.02 3.29.04 2.52 1-1c5.38 5.38 3.18 19.11 3.19 26.31l.03 3.46.01 3.34.01 3c-.27 3.21-1.18 5.85-2.24 8.89-.17 3.25-.17 3.25 0 6h-2l.29 3.07.33 4.05.2 2.02c.35 4.45-.04 7.77-1.82 11.86l-2 2c-.17 3.58-.17 3.58 0 7h-2l.62 3.69c.47 3.71.16 5.95-1.62 9.31l-1 2.25c-1 1.75-1 1.75-3 2.75v6l-3-2 .36 1.69c1.06 6.28.04 9.96-3.36 15.31h-2l-1 3-2-2 .56 3.38C821 759 821 759 820 761h-2l-1 3-2-1 .75 2.75c.25 3.25.25 3.25-1.56 5.63C812 773 812 773 810 773v3c-1.38 1.69-1.38 1.69-3 3h-2l-1 3h-4v2l-4.91 2.07c-2.08.89-2.08.89-3.95 1.98-7.05 3.76-13.65 3.28-21.45 2.83l-3.82-.15c-9.81-.46-9.81-.46-13.87-2.73l-3.44-.88c-3.74-1.18-5.6-2.61-8.56-5.12-1.98-1.04-3.97-2.06-6-3v-2l-1.75-.75c-4.92-2.73-6.83-6.32-9.25-11.25l-2.12-2.5c-2.17-2.88-2.55-4.96-2.88-8.5h-2c-1.26-2.91-2-4.8-2-8h-2l-.75-3.5a33.77 33.77 0 0 0-3.19-8.31c-3.81-7.25-5.2-15.13-6.06-23.19l-1-3a217.77 217.77 0 0 1-.28-7.66l-.06-2.26-.21-9.57-.17-6.98-.04-2.2c-.04-3.79-.04-3.79-1.24-7.33-.1-2.54-.14-5.06-.13-7.6l-.01-2.27.01-4.75-.01-7.3.01-4.62-.01-2.21c.03-5.14.03-5.14 1.14-6.25.24-3.4.4-6.78.52-10.19.27-5.6.27-5.6 2.48-7.81.23-2.2.36-4.41.44-6.62.5-8.42 1.98-13.87 7.56-20.38l1-3h2v-3l2-2c4.16-4.41 4.16-4.41 6-10h2c1.07-2 1.95-3.72 2.37-5.96.78-2.52 1.74-3.26 3.82-4.85 2.65-2.14 4.81-4.28 6.93-6.94 3.64-4.38 7.38-5.31 12.88-6.25v-2l2.15-.4 2.79-.54 2.77-.52c2.24-.32 2.24-.32 3.29-1.54zm17 21l-7.25.25-2.07.04c-3.48.17-5.33.41-8.02 2.71l-1.66 2c-2.25.75-2.25.75-4 1l1 2h2c-3.62 5.75-3.62 5.75-7 8-1.35 2.63-2.03 4.41-1.88 7.38-.15 3.33-1.44 5.12-3.16 7.91-1.22 2.17-1.66 4.25-1.96 6.71l-3-2c-1.04 3.71-.82 6.64-.27 10.41.36 3.47.43 6.92.46 10.4l.04 3.9C741 630 741 630 739 633c-.3 2.71-.3 2.71-.26 5.8l-.02 3.61.01 3.9v4l.01 8.39-.01 10.74v8.26l-.01 5.89.02 3.61.01 3.18c.06 2.85.06 2.85 2.25 5.62.23 2.27.23 2.27.2 4.89l-.02 2.84-.06 2.96-.02 2.99-.1 7.32h2c1.69 5.28 1.29 10.67 0 16h2c2.57 4.34 2.7 8.88 3.24 13.81.87 3.64 2.33 5.4 4.76 8.19v2l2 1 2 3 2 2v3c4.71 1.84 8.7 2.27 13.75 2.25l3.98.02c3.35.08 3.35.08 5.27-2.27 2.12-.62 2.12-.62 4-1v-2l1.81-.62c4.87-3.06 5.75-9.15 7.19-14.38l1.56-3.81c1.8-4.62 2.15-9.27 2.44-14.19h2l1-11h2l.18-1.93.26-2.51.24-2.49C805 710 805 710 806 709c.16-2.96.26-5.89.32-8.85l.06-2.68.18-8.53.13-5.77L807 669l2-1 .11-14.62.04-4.97.05-7.17.03-2.22c0-4.42-.65-7.91-2.23-12.02-.33-1.83-.62-3.66-.88-5.5-1.72-10.89-5.24-21.21-9.12-31.5l-1-3h-2l-.88-3.31c-.94-3.73-.94-3.73-3.12-6.69h-2l-.25-2.38c-.48-2.77-.48-2.77-2.81-3.93L783 570l1-2h-5l-1-2zm-20 2l1 3 1-3h-2zm-8 11l1 2 1-2h-2zm-2 6l1 2zm81 2l1 2zm-82 1v5h1v-5h-1zm-2 2l1 4zm1 4l1 2zm87 0l1 2zm1 3l1 2zm-91 1v5h1v-5h-1zm-6 31l1 2zm1 2l1 2zm0 9v10h1v-10h-1zm0 25v20h1v-20h-1zm101 13l1 2zm0 13l1 2zm-101 2l1 2zm99 3l1 2zm-2 11v5h1v-5h-1zm-1 7l1 2zm-1 3l2 2v-2h-2zm-1 2l1 2zm-2 9l1 2zm-84 10l-1 2h2l-1-2zm1 2l1 2zm78 1l1 2 1-2h-2zm-1 2l1 2zm1 2l1 2zm-3 1l1 4 1-4h-2zm-71 7l1 2zm66 4l1 4 1-4h-2zm-16 21l1 3 1-3h-2zm-16 8l4 1z" fill="#e6e4df"/><path d="M1137 545l9-.12 2.54-.06c3.98-.03 7.53.07 11.35 1.19 5.22 1.48 10.43 1.13 15.8.99l6.07-.12 2.69-.08c4.42.34 7.03 1.75 10.36 4.64C1197 554 1197 554 1197 557h2c1.12 5.62 1.12 5.62 0 9-2.96 1.48-5.84 1.35-9.12 1.56l-3.89.26-2.99.18c-1.3 4.34-.8 7.57 0 12l2 1-.03 1.7-.09 7.61-.06 2.67-.02 2.57-.03 2.37c.1 2.39.1 2.39 2.23 5.08.76 1.92 1.46 3.86 2.12 5.81l1.08 3.08c.82 3.17.95 5.85.8 9.11l3 1 .44 2.31c.78 3.75 1.26 5.4 4.06 8.13 2.44 2.5 2.94 3.3 3.5 6.56 2.14 2.14 3.13 2.43 6 3v-4l2-1c.65-2.02.65-2.02 1-4h2l.44-2.44c.56-2.56.56-2.56 1.56-3.56l.31-3.19c.77-4.25 2.3-6.27 4.69-9.81.63-1.99 1.07-3.96 1.5-6 .5-2 .5-2 2.06-5.44 1.5-3.71 1.95-6.78 2.23-10.74.21-1.82.21-1.82 1.21-2.82.91-5.02 1.11-9.84 1.06-14.94l-.01-2.07-.05-4.99-3.3-.36c-5.33-.92-8.07-3.73-11.51-7.76C1212 557 1212 557 1211 554c4.12-4.75 7.72-6.68 14.06-7.15 2.27-.05 4.53-.02 6.8.03l2.49.02 7.84.1 10.35.12 2.39.06c3.85.03 6.82.01 10.07-2.18v2l3 1c1.68 1.27 1.68 1.27 3 3 .29 2.26.29 2.26.19 4.69l-.08 2.45-.11 1.86-3 1v6l-2.67-.03c-6.58-.1-6.58-.1-12.24 2.65-1.45 2.14-1.45 2.14-3.09 5.38h-2l-.06 4.31-.04 2.43c0 2.43 0 2.43 1.1 5.26-.9 3.88-1.78 6.67-4 10v-3h-2c-1.01 2.82-.94 4.4-.5 7.44.57 4.07.34 6.89-1.5 10.56l-1 6h-3v3h-3l3 2c-.61 7-2.05 12.07-6 18h-1l-.38 3.75c-.8 6.09-.8 6.09-2.62 8.25-3.12.75-3.12.75-6 1l1.06 2.38.94 2.62-1 2h-2v48l2-1c1.14 2.27 1.13 3.54 1.13 6.06l.01 2.42-.02 2.52.02 2.52-.01 2.42v2.21C1223 728 1223 728 1222 730h-2v25l2-1 .23 2.23c.58 3.28 1.21 5.81 2.77 8.77 3.01 1.77 5.93 2.79 9.24 3.88 2.76 1.12 2.76 1.12 4.95 4.37l.81 2.75 1 1c.59 4.71.64 8.03-2 12.06l-2 1.94-5-1v2c-6.75 1.23-13.47 1.22-20.31 1.25l-3.61.06-3.44.02-3.14.03-2.5-.36-2-3c-2.65-.32-2.65-.32-5.74-.08l-3.48.11-7.28.35c-3.26.09-6.28.13-9.5-.38-2.97-2.96-4.57-5.77-4.75-10 .12-2.78.5-3.74 2.44-5.77 2.05-1.55 4.11-2.91 6.31-4.23l3-2c2.26-.41 2.26-.41 4.69-.62l2.45-.23 1.86-.15.1-27.17.05-12.62.04-12.18.02-4.64.02-6.51.01-3.74c-.23-3.03-.74-4.57-2.24-7.14-.24-2.38-.24-2.38-.31-5.12-.58-8.62-3.19-16.67-5.69-24.88l-.93-3.12c-.61-1.98-1.33-3.94-2.07-5.88l-2-1-2-2-2.5-2.44c-3.29-3.37-4.66-6.01-5.88-10.49-2.19-7.35-5.58-14.16-9.16-20.92-1.83-3.96-3.13-8-4.46-12.15l-1.57-4.66c-3.55-10.89-5.4-20.88-5.43-32.34l-3.82-.41c-4.16-.44-6.42-1.24-9.18-4.59-.69-3-.93-5.93-1-9h2l.94-1.88L1134 548h2l1-3zm58 9l1 2zm1 3l1 2zm0 3l1 3zm54 7l1 2zm-5 17l1 2 1-2h-2zm-1 2l1 2zm-62 1l1 2zm63 1l1 3zm-1 3l1 2zm-61 10l1 2zm58 0v2h-2l1 3 2-1-1-4zm-55 4v5h1v-5h-1zm0 6l1 2zm2 1l1 2zm49 0l1 2 1-2h-2zm-1 2l1 2zm3 0l1 2zm-50 1l1 2zm4 10l1 2zm39 6l1 4zm-6 11l1 2 2-2h-3zm1 3l1 4zm-3 4l1 4 1-4h-2zm-5 10l1 2zm2 51l1 3zm-3 17l1 2zm3 29l-1 3 2 3v-6h-1zm16 18l1 2zm2 5l1 2zm-2 5l1 2 1-2h-2zm-38 7v1h7v-1h-7zm9 0v1h17v-1h-17z" fill="#e2dfdb"/><path d="M1023.417 546.855l2.5-.01 8.13-.01 5.69-.01 11.91-.01 15.2-.03 11.75-.01 5.6-.02c23.68-.09 23.68-.09 32.93 5.37l2.82 1.63 2.05 1.25v2l3 1c.75 3.66 1.24 6.42 0 10l1-1c2 2 2 2 2.27 4.93l-.02 3.5.02 3.5c-.27 3.07-.27 3.07-2.27 6.07-.16 2.62-.16 2.62 0 5h-2l-1 4h-3l-1 2c-2.68 1.37-4.29 2.11-7.31 1.62l-1.69-.62v-2h-2c-2.23-4.53-2.39-8.69-2.56-13.63-.17-5.77-.17-5.77-1.44-11.37l-2 1c-3.31.03-6.62-.07-9.93-.16-3.24-.1-3.24-.1-6.07 2.16l-6 1-1 198 10 2 3 3 1.75 1.31c1.25 1.69 1.25 1.69.94 4.87l-.69 2.82-7 1 2 3-21.75.15-10.09.07-11.61.07-3.67.05h-3.4l-2.99.02c-2.49-.36-2.49-.36-4.26-1.68-2.13-2.93-2.29-5.09-2.23-8.68 2.15-3.78 4.84-6.37 8.63-8.44 2.37-.56 2.37-.56 6.37-.56l-.34-27.67-.15-12.85-.16-12.39-.06-4.73-.08-6.62-.05-3.81c.04-2.87.04-2.87-1.16-4.93-.1-2.4-.14-4.77-.13-7.16v-2.14-4.47-6.87-4.34l-.01-2.08c.03-4.83.03-4.83 1.14-5.94a114.96 114.96 0 0 0 .13-5.87l.01-3.8v-4.14-4.22l-.01-8.86.01-11.36v-8.72-4.19l-.01-5.85v-3.37c.05-2.61.05-2.61-1.13-4.62a96.29 96.29 0 0 1-.21-4.8l-.08-2.91-.14-6.04c-.17-5.44-.44-9.6-3.57-14.25-2.96-1.49-5.83-1.36-9.12-1.57l-3.88-.25-3-.18-1 2c-2.99.99-4.17 1-7.18.56l-3.82-.56v2h-3l1 6-4-1 .48 1.72c1.31 5.19 1.64 9.03.52 14.28l-4-2 1 5c-1.77.13-3.54.23-5.31.31l-2.99.17c-2.7-.48-2.7-.48-4.51-2.4-1.64-4.27-1.72-8.24-1.81-12.77l-.17-5.14-.05-2.28c-.05-1.98-.05-1.98-1.16-3.89-.04-2-.04-4.01 0-6h2l-.25-2.69c.31-4.03 1.44-5.5 4.25-8.31h2v-2l3.44-.94c3.35-.69 3.35-.69 4.56-2.06a163.35 163.35 0 0 1 7 0v-2c4.83-.96 9.52-1.15 14.42-1.15zm98.58 16.15v2l2-1-2-1zm-107 6l1 2zm3 0l1 2zm106 10l1 4zm-46 4l1 4zm40 8l1 3 1-3h-2zm-41 171l1 2zm0 6l1 3z" fill="#ebe8e3"/><path d="M282.188 590.063c3.29 3.02 5.16 6.52 5.81 10.94-.54 5.77-1.68 11.16-3.22 16.74l-.66 2.49-2.12 7.77-1.36 4.99-4.14 15.07-1.39 5.06-5.43 19.62-6.61 24.24-2.5 9.38-4.39 16.91-1.74 6.73-.74 3.11c-1.49 5.65-3.09 9.36-7.88 12.89-4.42 2.43-9.02 2-13.82 1-3.53-1.99-6.18-4.36-8-8-.58-7.92 1.26-14.58 3.48-22.14l1.66-5.8 1.14-4.02 5.84-21.25 1.55-5.77 1.57-5.86 3.31-12.25.56-2.08 2.23-8.24 6.28-23.36 3.01-11.19 1.34-5.02 1.83-6.8 1.01-3.76c1.66-4.83 3.51-9.2 7.69-12.34 5.92-2.66 10.05-2.71 15.69.94zm43.5 26.437c3.88 2.8 7.52 5.91 11.21 8.96 3.22 2.65 6.5 5.22 9.79 7.79l15.75 12.56 1.97 1.6c14.79 12.04 14.79 12.04 16.47 19.47.35 4.27-.4 7.6-2.88 11.12-5.02 5.46-11.16 9.63-17.21 13.87-5.06 3.55-9.93 7.31-14.79 11.13l-6.83 5.32-4.19 3.26c-12.55 9.79-12.55 9.79-18.95 9.8-4.72-.88-8.42-2.93-11.96-6.13-2.05-4.34-2.82-8.01-1.29-12.56 2.97-5.93 6.92-8.89 12.22-12.69l3.9-2.93 23.1-17.07c-1.39-5.58-5.31-8.11-9.62-11.5l-2.28-1.83-7.1-5.67-6.76-5.43-4.15-3.31c-4.06-3.26-7.37-5.95-8.96-11.07-.21-5.38 1.83-8.92 5.18-13 5.69-4.63 10.94-5.28 17.38-1.69zM210 615c4.27 2.56 6.3 5.34 8 10 .74 5.19.01 8.7-3 13-6.31 6.54-13.53 12.06-20.76 17.53-4.86 3.68-9.55 7.58-14.24 11.47 1.16 3.49 2.07 4.06 4.98 6.19l2.51 1.85 2.7 1.96 5.48 4.06L201 685l8 6 1.68 1.23c4.46 3.43 7.57 7.41 8.82 12.99-.18 5.56-1.4 9.44-5.12 13.59-3.66 1.83-7.3 2.62-11.38 2.19-6.37-2.36-11.51-6.47-16.75-10.69l-4.77-3.77-2.33-1.84c-4.64-3.66-9.4-7.17-14.15-10.7l-9.1-6.81-5.77-4.29c-5.11-3.84-8.58-6.57-10.13-12.9 0-4.94 3.14-9.14 6-13 2.4-2.39 5-4.44 7.69-6.5l2.15-1.7 4.24-3.31 7.3-5.8L172 636l2.34-1.88 4.88-3.9 4.49-3.6 5.54-4.43 1.75-1.42c6.12-4.86 11.14-8.14 19-5.77z" class="B"/><path d="M842 631c5.38 5.38 3.18 19.11 3.19 26.31l.03 3.46.01 3.34.01 3c-.27 3.21-1.18 5.85-2.24 8.89-.17 3.25-.17 3.25 0 6-1.98-1.37-1.98-1.37-4-4-.58-3.34-.46-6.64-.39-10.02l.02-2.94.12-9.29.05-6.3.2-15.45 3-1v-2z"/><path d="M673 585c2.75 2.75 2.94 4.8 3.12 8.63v3.05 3.51l-.01 3.84v4.05l-.01 10.99-.01 11.49-.02 21.75-.02 24.76L676 728h-1v-7l-3-1v-17h3V600l-3-1-1-12h2v-2z" fill="#171616"/><path d="M647 678c2.3 3.45 2.24 4.7 2.23 8.76v3.58l-.03 3.86-.01 3.95-.05 10.41-.04 10.61L649 740l-2 1c-2.58-5.91-2.29-11.72-2.27-18.04v-3.51l.01-7.33-.01-11.22v-7.13l-.01-3.39.02-3.16.01-2.77c.26-2.58.94-4.22 2.25-6.45z" fill="#8f8e8b"/><path d="M928 549v3h-43l-1-2h2v-2c36.05-1.98 36.05-1.98 42 1z" fill="#e5e2dd"/><path d="M907.105 567.902l2.98.01 3.1.03 3.14.01 7.67.05v3h-23l.04 5.26.03 6.99.02 3.45c.02 7.49-.33 14.85-1.09 22.3h-1c-1-8.16-1.11-16.29-1.12-24.5l-.01-3.22v-3.06l.01-2.76c.12-2.34.27-4.27 1.12-6.46 3-1 4.98-1.12 8.11-1.1z"/><path d="M701 636c2.57 2.57 2.25 4.31 2.28 7.82l-.01 2.4v2.46l-.01 5.17.01 7.92v5.01l.01 2.4c-.05 5.59-.05 5.59-2.28 7.82-2.09-4.28-2.29-8.18-2.27-12.86v-2.25l.01-4.68-.01-7.19v-4.56l-.01-2.18c.05-5.05.05-5.05 2.28-7.28z" fill="#8f8d8a"/><path d="M1044 661c3.45 3.56 3.44 6.98 3.4 11.69l.01 2.24-.02 4.68.02 7.15-.01 4.55.02 2.16c-.06 4.12-.51 6.53-3.42 9.53-2.02-4.21-2.26-7.67-2.27-12.31v-2.1l.01-4.36-.01-6.66v-4.26l.01-3.88c.25-3.27.85-5.5 2.26-8.43z" fill="#4e4d4c"/><path d="M559 696h1c.85 9.22 1.14 18.35 1.1 27.61l-.01 4.05-.02 10.51-.02 10.78L561 770l-3 1 1-75z"/><path d="M906 729c2.77 2.77 2.41 4.7 2.67 8.58l.13 1.98.26 4.13.41 6.3c.73 11.23.73 11.23-.47 16.01h-2l-1-5h2l-2-7h-1l-.18-2.59-.26-3.35-.24-3.34c-.02-2.63-.02-2.63-1.32-3.72-.2-2.21-.2-2.21-.25-4.94l-.08-2.71.33-2.35 3-2z" fill="#2f2e2d"/><path d="M564 626c2.47 2.15 3.56 3.72 4 7l-1 1-.1 7.54.01 2.28.03 7.24.01 4.9L567 668l-2 1c-2.32-3.67-2.24-6.82-2.23-11.1v-2.06l.02-4.28.02-6.56c.04-10.7.04-10.7 1.19-13l-1-5 1-1z"/><path d="M418 817l2 2c-2.12 4.37-5.04 6.9-8.67 9.97-5.55 4.84-11.05 10.01-15.33 16.03l-4-1c4.46-5.34 9.18-10.3 14.12-15.19l2.13-2.11 4.02-3.98L418 817z" fill="#62615f"/><path d="M647 678c2.3 3.45 2.24 4.7 2.23 8.76v3.58l-.03 3.86-.01 3.95-.05 10.41-.04 10.61L649 740l-2 1 .02-3.25.04-14.94.01-2.7c.02-11.13-.05-22.24-.8-33.36-.22-3.27-.32-5.6.73-8.75z"/><path d="M843 633h1c.9 8.14 1.15 16.19 1.12 24.38l.02 3.48-.01 3.35v3.01c-.13 2.69-.53 5.16-1.13 7.78h-1c-1.27-5.86-1.15-11.66-1.12-17.62v-3.25c.04-7.09.25-14.09 1.12-21.13z" fill="#aeaca8"/><path d="M1199 788h8v2h21l1-2 3 2v2c-6.8 1.27-13.54 1.11-20.44 1.06-1.21 0-2.41-.01-3.66-.01l-8.9-.05-1-3 1-2zm0 3v1h7v-1h-7zm9 0v1h17v-1h-17z" fill="#5d5c5a"/><path d="M902 667h1c.8 4.23 1.13 8.24 1.13 12.54l.01 3.76-.02 3.89.02 3.83c-.01 7.38-.31 14.64-1.14 21.98h-1c-1.73-35.38-1.73-35.38 0-46z"/><path d="M739 640h1v45h-1v-20l-3-1v-14h3v-10z" fill="#282827"/><path d="M970 731c3.54 3.54 3.06 8.19 3.1 12.96l-.04 5.42-.01 2.8L973 759h-1v-9h-3l-.18-2.45-.26-3.24-.24-3.2c-.28-2.76-.72-5.4-1.32-8.11l3-2z" fill="#333231"/><path d="M869 600h1l.05 16.76.03 5.7.02 8.2.01 2.56c0 4.38-.23 8.47-1.11 12.78h-1c-1.45-11.67-1.07-23.06 0-34.75l.29-3.3.71-7.95z"/><path d="M1221 708c2 2 2 2 2.24 3.85l-.01 2.21-.01 2.42-.03 2.52v2.52c-.05 6.2-.05 6.2-1.19 8.48l-3-1c-1.64-3.29-1.23-6.89-1.25-10.5l-.06-2.38c-.02-2.28-.02-2.28.31-6.12l3-2zm0 2l1 3z" class="C"/><path d="M807 668h3c.82 4.3 1.12 8.34 1.1 12.71l-.01 3.77-.03 3.9-.01 3.96L811 702c-2.23-3.34-2.27-4.56-2.34-8.47l-.09-3.23-.14-6.74-.09-3.22-.05-2.96c-.06-2.57-.06-2.57-2.29-4.38.38-2.62.38-2.62 1-5z" fill="#060606"/><path d="M804 561c3.03 1.72 5.76 3.29 8 6v2l2.19.19c3.71 1.07 5.32 2.91 7.81 5.81l1 3h2l-1 4c-3-1-3-1-4-2.94l-1-2.06-3-2v-2l-3-1v-2l-1.69-.12c-3.6-1.37-5.04-3.79-7.31-6.88v-2z" fill="#2d2c2b"/><path d="M110 824h2v2h2v2l3 1v2h2l5 5v2l2 1c-1.65.79-1.65.79-4 1-2.73-1.95-2.73-1.95-5.62-4.69l-2.92-2.7c-2.08-2.21-3.5-3.75-4.46-6.61l1-2z" fill="#050505"/><path d="M219 886l7 2v2h5v-2h10l1 3h-7l-1 2v-2l-1.62.55c-3.04.57-5.46.16-8.5-.36l-3.2-.52C218 890 218 890 216 888l3-2z"/><path d="M969 594l3 1 .12 5.81.08 3.27C972 607 972 607 970 610c-2.97-3.27-3.34-5.38-3.19-9.75l.08-2.98.11-2.27 2-1z" fill="#343332"/><path d="M886 548h7v1l-5 1 3.35-.03 12.29-.08 5.33-.04 7.64-.05 2.41-.03c3.86 0 5.69.04 8.98 2.23h-43l-1-2h2v-2z"/><path d="M1126 567c2 2 2 2 2.27 4.93l-.02 3.51.02 3.49C1128 582 1128 582 1126 585c-2.27-5.39-2.2-10.26-2-16h2v-2z" class="C"/><path d="M737 612h2c1.11 4.05 1.34 8.07 1.56 12.25l.13 2.26.31 5.49-2 1c-2.71-3.98-2.22-8.14-2.12-12.75l.02-2.4.1-5.85z"/><path d="M121 497l1 4h-2l-3 5-4 4-2 3-3-3 2-3h2l1-3h2v-2l6-5z" fill="#363534"/><path d="M629 671h1l.12 7.25.06 2.07c.03 3.74-.1 6.5-2.18 9.68h-3c-.12-7.75-.12-7.75 1-10h3l-2-5h2v-4z" class="C"/><path d="M400 496c6.24 5.24 11.85 10.68 17 17l-1 2-2.12-2.15-2.76-2.79-2.74-2.77c-2.16-2.3-2.16-2.3-4.38-3.29v-2h-2c-1.62-2.5-1.62-2.5-3-5l1-1z" class="B"/><path d="M914 655l3 2v2l2 1h-3v-2h-4v2l-6 2c-.69-1.81-.69-1.81-1-4 2.23-3.68 5-3.42 9-3z" fill="#151414"/><path d="M780 565l5 1v3h3c3 4.22 3 4.22 3 7l-3 1v-3l-9-4 1-5z" fill="#313130"/><path d="M404 504c3.45 1.47 5.56 3.41 8.12 6.12 1.26 1.33 2.54 2.64 3.88 3.88h2v2l3 1-3 3-1.14-1.36c-5.84-6.94-5.84-6.94-12.86-12.64v-2z" fill="#0b0a0a"/><path d="M673 585c2 2 2 2 2.2 5.04l-.08 3.58-.05 3.61L675 600l-3-1-1-12h2v-2z" fill="#494847"/><path d="M673 566h3v2h3v-2l7 1 1 2c-3.01 1-5.04 1.1-8.19 1.06l-2.73-.02L674 570l-1 2c-1.12-3.75-1.12-3.75 0-6z" fill="#3e3d3c"/><path d="M647 600c1.06 1.88 1.06 1.88 2 4l-1 2h2v-2h2l-1 3h-3l-.44 2.88C647 613 647 613 646 615h-2c-1-3-1-3-.06-5.06L645 608v-2l2-6z" fill="#292828"/><path d="M1227 563v3l3-1c1.49 1.05 1.49 1.05 3 3 .29 3.36.29 3.36.19 7.19l-.08 3.85-.11 2.96h-1v-13h-4v-2l-7-1c2.62-3 2.62-3 6-3z" fill="#0b0b0b"/><path d="M1077 569l4.88-.12 2.74-.08c2.38.2 2.38.2 4.38 2.2-2.52 1.26-3.85.92-6.62.56l-2.48-.31-1.9-.25v8l-3-1c-.2-3.68.25-5.78 2-9z"/><path d="M742 715c3.1 3.1 2.99 5.39 3.06 9.75L745 728l-4-2-.06-4.38-.04-2.46c.1-2.16.1-2.16 1.1-4.16z" fill="#3f3f3d"/><path d="M869 658c.9 2.71 1.12 4.24 1.1 7.01l-.01 2.3-.03 2.38-.01 2.41-.05 5.9c-2.8-4.2-3.16-7.11-3.19-12.06l-.04-3.23C867 660 867 660 869 658zm344-29l2 1c-.46 3.47-.89 6.67-2 10l-3 1-1 3-3-1 2-1v-4l2-1c.65-2.02.65-2.02 1-4h2v-4zm-137-48l2 1c.1 5.79-.01 11.29-1 17h-1c-.82-5.66-1.43-11.28-1-17l1-1z"/><path d="M565 674h1c.19 4.82-.24 8.5-2 13l-2-1c-.41-2.07-.41-2.07-.62-4.56l-.23-2.51L561 677l4-1v-2zm-2 7l1 4z" fill="#3c3c3a"/><path d="M769 546l1 3-4.81.12-2.71.08C760 549 760 549 757 547c4-2.83 7.43-1.76 12-1z" fill="#212120"/><path d="M281 888c7.38-.37 7.38-.37 10.5 1.5l1.5 1.5c-3 2-3 2-6 2v-2h-6v-3z" fill="#0d0d0d"/><path d="M650 773v2h-5l2 2-3.38.25c-3.68.33-3.68.33-5.06 2.81L638 782c-1.12-3.75-1.12-3.75 0-6l5-1v-2c3.01-.93 3.87-1.04 7 0z"/><path d="M1167 641l3 2v2l1.94.81C1174 647 1174 647 1175 650l-3 1c-4.88-4.75-4.88-4.75-6-7l1-3z" fill="#30302f"/><path d="M831 589c2.98 3.07 3.96 4.46 4.25 8.81L835 601h-3l-3-9h2v-3zm2 5l1 2z" fill="#1b1b1a"/><path d="M730 770l2 1v2l2.44.81L737 775l1 3-4 1v-2l-1.94-.75C730 775 730 775 729.19 772.94L729 771l1-1z" fill="#2a2a29"/><path d="M802 556c3.61 1.5 5.69 3.58 8.25 6.5l2.14 2.41C814 567 814 567 814 569h-2l-3.68-4.49c-1.44-1.78-1.44-1.78-4.32-3.51v-2l-3-1 1-2z" class="B"/><path d="M745 551l3 4-2.19-.38c-3.26.44-3.61.94-5.62 3.38l-2.19 3-2-3c2.66-3.74 4.58-5.65 9-7z" fill="#161515"/><path d="M618 723h2l-.04 2.05-.02 2.7-.04 2.67c0 2.55 0 2.55.73 4.78l.37 1.8-2 2c-2.48-5.55-1.85-10.17-1-16z"/><path d="M930 574l2 1v4h2l-1 5-2 1c-2.09-3.4-2.26-6.05-2-10l1-1z" fill="#1e1e1d"/><path d="M516 565l9 2 1-2 2 1-1 3h-14l3-4zm451 133h1c.11 6.77-.12 13.29-1 20h-1l-1-16h2v-4z"/><path d="M704 618c2 2 2 2 2.2 4.6l-.08 3.02-.05 3.04L706 631c-2-3-2-3-2-6l-3-1c.57-2.87.86-3.86 3-6z" fill="#1f1e1e"/><path d="M111 828c3.45 1.48 5.65 3.44 8.25 6.12l2.14 2.2L123 838l-1 2-5.5-4.88-1.59-1.39c-1.34-1.2-2.63-2.46-3.91-3.73v-2z" class="B"/><path d="M1223 762l2 3c2.05 1.19 2.05 1.19 4 2v2c-2.31.69-2.31.69-5 1-1.81-1.44-1.81-1.44-3-3l2-5z" fill="#292928"/><path d="M1182 578h1c.1 5.13.04 9.95-1 15h-1l-1-13h2v-2zM739 693h1l-1 16h-1l-1-14h2v-2z"/><path d="M580 598c2.65 1.32 3.04 2.2 4 5l-1 7h-2v-3h2l-2-3h-2l-1-4h2v-2z" fill="#2b2a29"/><path d="M297 887h8l1 2c-3.4 2.09-6.05 2.18-10 2l1-4z" fill="#3f3e3c"/><path d="M219 886l7 2v2h-8l-2-2 3-2z" fill="#484745"/><path d="M847 565c2.09 3.4 2.18 6.05 2 10h-2c-1.5-3.37-2-5.2-2-9l2-1z" fill="#242322"/><path d="M675 737l2 1c1.26 4.48 1.26 4.48 0 7l-3-1-1-6 2-1zm134-115h2l-.38 4.94-.21 2.77L810 632l-2 1c-1.03-4.41-1.04-6.93 1-11zm179-58c2.57 3.85 1.83 5.59 1 10h-2c-1.35-2.71-1.07-5.01-1-8h2v-2z" fill="#121212"/><path d="M460 742h3c-.6 4.19-1.57 8.01-3 12-1.53-4.08-.63-7.79 0-12z" fill="#6e6d6a"/><path d="M673 792h12v1h-12v-1z" class="B"/><path d="M1243 595l2 3-1 2-2-4 1-1zM820 752l2 2c-.38 2.12-.38 2.12-1 4l-1-6z"/><path d="M623 709h1v7h-1v-7zm-151-9h1v7h-1v-7z" class="B"/><path d="M1010 572l6 1-3 1-3-2zM441 783l2 2-1 3-1-5zm8-15l2 2-1 3-1-5zm366-5l2 2-1 3-1-5z"/><path d="M838 705h1v6h-1v-6z" class="B"/><path d="M741 603l2 3-1 2-1-5zm263-24l3 1v2h-2l-1-3zM361 864l4 1-2 1-2-2zm75-71l3 1-2 2-1-3z"/><path d="M966 688h1v5h-1v-5z" class="B"/><path d="M634 660l1 2-2 2 1-4z" fill="#91908d"/><path d="M1222 655l3 1-2 2-1-3zm26-79l2 4-2-1v-3zm-240-1h2l-1 3-1-3z"/><path d="M1270 561l2 3-3-1 1-2z" fill="#c2c0bc"/><path d="M367 861l3 2h-3v-2zm54-48l2 1-1 2-1-3zm145-29l3 1h-3v-1zm-120-10l3 1h-3v-1zm5-10l3 1h-3v-1z"/><path d="M828 734l2 3h-2v-3z" fill="#3c3c3a"/><path d="M1002 594l2 1-1 2-1-3zm266-31l2 1-1 2-1-3z"/><path d="M180 876l3 1z" class="B"/><path d="M370 859h2l-1 2-1-2zm5-3l2 2h-2v-2zm3-2h2l-1 2-1-2zm10-8h2l-1 2-1-2zm-215 26l2 1zm915-85l2 1z"/><path d="M1010 574l2 1z" class="B"/><path d="M777 568l2 1z"/></svg>